<svg xmlns="http://www.w3.org/2000/svg" viewBox="0 0 48 48" role="img" aria-hidden="true">
  <defs>
    <linearGradient id="a" x1="9.5" x2="40.5" y1="9.5" y2="40.5" gradientUnits="userSpaceOnUse">
      <stop offset="0" stop-color="#fff" stop-opacity="0.1" />
      <stop offset="1" stop-color="#fff" stop-opacity="0" />
    </linearGradient>
  </defs>
  <circle cx="24" cy="24" r="22" fill="#ffffff" />
  <path
    fill="#4285f4"
    d="M43.6 24.5c0-1.6-.1-2.7-.4-3.9H24v7h11.3c-.2 1.8-1.4 4.6-4.1 6.4l-.1.9 6 4.6.4.1c3.6-3.3 5.7-8.1 5.7-14.1z"
  />
  <path
    fill="#34a853"
    d="M24 44c5.2 0 9.6-1.7 12.8-4.6l-6.1-4.7c-1.6 1.1-3.8 1.9-6.7 1.9-5.1 0-9.4-3.3-10.9-7.9l-.8.1-6 4.7-.1.8C10.5 39.7 16.7 44 24 44z"
  />
  <path
    fill="#fbbc05"
    d="M13.1 28.7C12.7 27.5 12.5 26.2 12.5 25s.2-2.5.6-3.7l-.1-1-6-4.7-.8.4C5.4 18.6 4.9 21.4 4.9 24s.5 5.4 1.3 7.9l6.9-3.2z"
  />
  <path
    fill="#ea4335"
    d="M24 11.5c3.6 0 6.1 1.6 7.5 3l5.5-5.4C33.5 6.2 29.2 4 24 4 16.7 4 10.5 8.3 7.5 16l6.9 3.3C15.6 14.8 18.9 11.5 24 11.5z"
  />
  <path fill="url(#a)" d="M4 4h40v40H4z" />
</svg>
